<svg width="122" height="52" viewBox="0 0 122 52" fill="none" xmlns="http://www.w3.org/2000/svg">
<g clip-path="url(#clip0)">
<path fill-rule="evenodd" clip-rule="evenodd" d="M45.1784 50.9066H43.438V42.6761H45.1784V50.9066ZM49.3866 45.4834V50.9066H47.8127V42.6761H49.3519L54.8668 47.9664V42.6761H56.4411V50.9066H55.066L49.3866 45.4834ZM62.9222 44.1788V50.9117H61.1812V44.1788H57.9879V42.6737H66.1167V44.1788H62.9222ZM69.4068 47.414V49.4161H75.4085V50.9066H67.6655V42.6737H75.186V44.1788H69.4068V45.9847H73.2789V47.414H69.4068ZM79.1198 47.5351V50.9164H77.3789V42.6737H82.2126C82.9039 42.6737 83.4285 42.7116 83.7873 42.7843C84.1473 42.8566 84.4707 42.9875 84.7561 43.1755C85.3085 43.5567 85.5836 44.1913 85.5836 45.0739C85.5836 45.7413 85.4119 46.2637 85.066 46.6368C84.7203 47.0108 84.0895 47.2792 83.1714 47.4472L85.5986 50.9164H83.6305L81.2792 47.5351H79.1198ZM79.1198 46.0452H82.2279C82.7019 46.0452 83.0524 45.9945 83.2803 45.8972C83.636 45.7612 83.8125 45.496 83.8125 45.1044C83.8125 44.7606 83.6883 44.5227 83.4415 44.3843C83.1967 44.246 82.7907 44.1788 82.2279 44.1788H79.1198V46.0452ZM89.5116 50.9066H87.7706V42.6761H89.5116V50.9066ZM96.2099 42.4932C97.4919 42.4932 98.5612 42.8269 99.4195 43.4947C100.444 44.2991 100.956 45.4206 100.956 46.863C100.956 48.2075 100.444 49.2809 99.4195 50.0861C98.571 50.7535 97.5071 51.0871 96.2253 51.0871C94.9339 51.0871 93.8631 50.7535 93.0161 50.0861C91.9916 49.2809 91.4796 48.1826 91.4796 46.7904C91.4796 45.3884 91.9916 44.2886 93.0161 43.4947C93.874 42.8469 94.9386 42.5132 96.2099 42.4932ZM96.2099 44.0589C95.3317 44.0589 94.6081 44.3315 94.0355 44.8813C93.5232 45.3908 93.2661 46.0273 93.2661 46.7904C93.2661 47.5522 93.5232 48.1896 94.0355 48.699C94.6081 49.2485 95.3371 49.5219 96.2253 49.5219C97.1032 49.5219 97.8275 49.2485 98.4001 48.699C98.9125 48.1997 99.1695 47.5777 99.1695 46.8353C99.1695 46.0226 98.9125 45.3705 98.4001 44.8813C97.8275 44.3417 97.098 44.0691 96.2099 44.0589ZM104.678 47.5351V50.9164H102.937V42.6737H107.77C108.462 42.6737 108.986 42.7116 109.345 42.7843C109.705 42.8566 110.028 42.9875 110.314 43.1755C110.866 43.5567 111.141 44.1913 111.141 45.0739C111.141 45.7413 110.97 46.2637 110.624 46.6368C110.278 47.0108 109.647 47.2792 108.729 47.4472L111.156 50.9164H109.188L106.837 47.5351H104.678ZM104.678 46.0452H107.785C108.26 46.0452 108.61 45.9945 108.837 45.8972C109.194 45.7612 109.37 45.496 109.37 45.1044C109.37 44.7606 109.246 44.5227 108.999 44.3843C108.754 44.246 108.348 44.1788 107.785 44.1788H104.678V46.0452ZM120.357 43.7326L119.618 44.9693C119.215 44.6454 118.733 44.4019 118.17 44.2414C117.608 44.0784 117.043 43.9982 116.47 43.9982C115.978 43.9982 115.538 44.0663 115.155 44.2041C114.573 44.3898 114.283 44.6652 114.283 45.0266C114.283 45.272 114.426 45.4432 114.711 45.5409C114.996 45.6385 115.508 45.7166 116.245 45.7769L117.411 45.8644C118.425 45.9426 119.187 46.1379 119.699 46.4512C119.973 46.629 120.199 46.865 120.378 47.1592C120.613 47.53 120.731 47.9466 120.731 48.4075C120.731 49.2406 120.373 49.9006 119.656 50.3921C118.948 50.8507 117.986 51.0821 116.775 51.0821C115.493 51.1122 114.196 50.7582 112.887 50.0237L113.419 48.7893C113.823 49.0249 114.33 49.2183 114.941 49.3711C115.551 49.5219 116.159 49.5973 116.76 49.5973C117.292 49.5973 117.774 49.5294 118.208 49.391C118.771 49.2257 119.051 48.9569 119.051 48.5834C119.051 48.2802 118.848 48.0693 118.445 47.9513C118.198 47.8738 117.759 47.8086 117.128 47.7609L115.975 47.6585C115.344 47.6074 114.87 47.5449 114.55 47.4675C114.229 47.3897 113.952 47.2768 113.715 47.1284C113.419 46.9331 113.188 46.6645 113.02 46.3285C112.852 45.9898 112.769 45.6186 112.769 45.2174C112.769 44.3168 113.14 43.6244 113.881 43.1427C114.573 42.7093 115.43 42.4932 116.455 42.4932C117.017 42.4932 117.599 42.571 118.208 42.7285C118.814 42.8871 119.53 43.2208 120.357 43.7326Z" fill="white"/>
<path fill-rule="evenodd" clip-rule="evenodd" d="M9.30641 32.8507H0.214355V1.03516H9.30641V32.8507Z" fill="white"/>
<path fill-rule="evenodd" clip-rule="evenodd" d="M77.8365 13.5537V20.4058H43.8311V13.5537H77.8365Z" fill="white"/>
<path fill-rule="evenodd" clip-rule="evenodd" d="M26.5846 32.7779H37.1332L22.4509 16.9431L37.1332 1.1084H26.585L11.9023 16.9431L26.5846 32.7779Z" fill="white"/>
<path fill-rule="evenodd" clip-rule="evenodd" d="M77.8365 1.1084V7.96045H43.8311V1.1084H77.8365Z" fill="white"/>
<path fill-rule="evenodd" clip-rule="evenodd" d="M77.8365 25.999V32.8511H43.8311V25.999H77.8365Z" fill="white"/>
<path fill-rule="evenodd" clip-rule="evenodd" d="M121.005 13.5537V20.4058H87V13.5537H121.005Z" fill="white"/>
<path fill-rule="evenodd" clip-rule="evenodd" d="M121.005 1.1084V7.96045H87V1.1084H121.005Z" fill="white"/>
<path fill-rule="evenodd" clip-rule="evenodd" d="M121.005 25.999V32.8511H87V25.999H121.005Z" fill="white"/>
</g>
<defs>
<clipPath id="clip0">
<rect width="122" height="51" fill="white" transform="translate(0 0.789062)"/>
</clipPath>
</defs>
</svg>
