<svg width="122" height="52" fill="none" xmlns="http://www.w3.org/2000/svg"><g clip-path="url(#clip0)" fill-rule="evenodd" clip-rule="evenodd" fill="#fff"><path d="M45.178 50.907h-1.74v-8.23h1.74v8.23zm4.209-5.424v5.424h-1.574v-8.23h1.539l5.515 5.29v-5.29h1.574v8.23h-1.375l-5.68-5.424zm13.535-1.304v6.733h-1.74v-6.733h-3.194v-1.505h8.129v1.505h-3.195zm6.485 3.235v2.002h6.002v1.49h-7.744v-8.232h7.521v1.505h-5.78v1.806h3.873v1.429h-3.872zm9.713.121v3.381h-1.741v-8.242h4.834c.69 0 1.216.038 1.574.11.36.073.684.203.97.392.551.38.827 1.015.827 1.898 0 .667-.172 1.19-.518 1.563-.346.374-.977.642-1.895.81l2.428 3.47H83.63l-2.35-3.382h-2.16zm0-1.49h3.108c.474 0 .824-.05 1.052-.148.356-.136.532-.401.532-.793 0-.343-.124-.581-.37-.72-.245-.138-.651-.205-1.214-.205H79.12v1.866zm10.392 4.862H87.77v-8.23h1.74v8.23zm6.698-8.414c1.282 0 2.351.334 3.21 1.002 1.024.804 1.536 1.926 1.536 3.368 0 1.345-.512 2.418-1.537 3.223-.848.668-1.912 1.001-3.194 1.001-1.291 0-2.362-.334-3.209-1-1.024-.806-1.536-1.904-1.536-3.297 0-1.402.512-2.501 1.536-3.295.858-.648 1.923-.982 3.194-1.002zm0 1.566c-.878 0-1.602.273-2.174.822-.513.51-.77 1.146-.77 1.91 0 .761.257 1.399.77 1.908.572.55 1.301.823 2.19.823.877 0 1.602-.273 2.174-.823.512-.5.77-1.121.77-1.864 0-.812-.258-1.465-.77-1.954-.573-.54-1.302-.812-2.19-.822zm8.468 3.476v3.381h-1.741v-8.242h4.833c.692 0 1.216.038 1.575.11.36.073.683.203.969.392.552.38.827 1.015.827 1.898 0 .667-.171 1.19-.517 1.563-.346.374-.977.642-1.895.81l2.427 3.47h-1.968l-2.351-3.382h-2.159zm0-1.49h3.107c.475 0 .825-.05 1.052-.148.357-.136.533-.401.533-.793 0-.343-.124-.581-.371-.72-.245-.138-.651-.205-1.214-.205h-3.107v1.866zm15.679-2.312l-.739 1.236a4.056 4.056 0 00-1.448-.728 6.064 6.064 0 00-1.7-.243 3.88 3.88 0 00-1.315.206c-.582.186-.872.461-.872.823 0 .245.143.416.428.514.285.098.797.176 1.534.236l1.166.087c1.014.079 1.776.274 2.288.587.274.178.5.414.679.708.235.371.353.788.353 1.248 0 .834-.358 1.494-1.075 1.985-.708.459-1.67.69-2.881.69-1.282.03-2.579-.324-3.888-1.058l.532-1.235c.404.236.911.43 1.522.582.61.15 1.218.226 1.819.226a4.76 4.76 0 001.448-.206c.563-.165.843-.434.843-.808 0-.303-.203-.514-.606-.632-.247-.077-.686-.142-1.317-.19l-1.153-.103c-.631-.05-1.105-.113-1.425-.19a2.804 2.804 0 01-.835-.34 2.016 2.016 0 01-.695-.8 2.467 2.467 0 01-.251-1.11c0-.901.371-1.594 1.112-2.075.692-.434 1.549-.65 2.574-.65.562 0 1.144.078 1.753.235.606.16 1.322.493 2.149 1.005zM9.306 32.85H.214V1.036h9.092v31.816zm68.531-19.296v6.852H43.83v-6.852h34.005zM26.585 32.778h10.548L22.451 16.943 37.133 1.108H26.585L11.902 16.943l14.683 15.835zm51.252-31.67V7.96H43.83V1.108h34.005zm0 24.891v6.852H43.83V26h34.005zm43.168-12.445v6.852H87v-6.852h34.005zm0-12.446V7.96H87V1.108h34.005zm0 24.891v6.852H87V26h34.005z"/></g><defs><clipPath id="clip0"><path fill="#fff" transform="translate(0 .79)" d="M0 0h122v51H0z"/></clipPath></defs></svg>