<svg width="36" height="34" fill="none" xmlns="http://www.w3.org/2000/svg"><path d="M18 9.208a8.6 8.6 0 00-4.584 1.313 7.905 7.905 0 00-3.038 3.497 7.39 7.39 0 00-.47 4.502 7.668 7.668 0 002.258 3.99 8.411 8.411 0 004.224 2.132c1.6.3 3.26.146 4.767-.443a8.168 8.168 0 003.703-2.87A7.488 7.488 0 0026.25 17c-.003-2.066-.872-4.046-2.42-5.507-1.546-1.46-3.643-2.282-5.83-2.285zm0 14.167a7.036 7.036 0 01-3.75-1.074 6.469 6.469 0 01-2.486-2.861 6.046 6.046 0 01-.384-3.684 6.274 6.274 0 011.847-3.264 6.882 6.882 0 013.456-1.745 7.12 7.12 0 013.9.363 6.682 6.682 0 013.03 2.348A6.126 6.126 0 0124.75 17c-.002 1.69-.714 3.31-1.98 4.506-1.265 1.195-2.98 1.867-4.77 1.869zM26.25 0H9.75C7.165.003 4.687.974 2.859 2.7 1.03 4.426.003 6.767 0 9.208v15.584c.003 2.441 1.031 4.782 2.859 6.508S7.165 33.997 9.75 34h16.5c2.585-.003 5.063-.974 6.891-2.7 1.828-1.726 2.856-4.067 2.859-6.508V9.208c-.003-2.441-1.031-4.782-2.859-6.508S28.835.003 26.25 0zm8.25 24.792c-.002 2.065-.873 4.046-2.42 5.507-1.546 1.46-3.643 2.282-5.83 2.284H9.75c-2.187-.002-4.284-.824-5.83-2.284-1.548-1.461-2.418-3.442-2.42-5.507V9.208c.002-2.065.872-4.046 2.42-5.507 1.546-1.46 3.643-2.282 5.83-2.284h16.5c2.187.002 4.284.824 5.83 2.284 1.547 1.461 2.418 3.442 2.42 5.507v15.584zm-5.25-17c0 .28-.088.554-.253.787a1.483 1.483 0 01-.673.521 1.582 1.582 0 01-.867.081 1.53 1.53 0 01-.768-.388 1.395 1.395 0 01-.41-.725 1.343 1.343 0 01.085-.818c.114-.26.306-.48.553-.636a1.564 1.564 0 011.893.176c.281.266.44.626.44 1.002z" fill="#fff"/></svg>