<svg width="36" height="36" viewBox="0 0 36 36" fill="none" xmlns="http://www.w3.org/2000/svg">
<path d="M33.75 0H2.25C1.64062 0 1.11328 0.222656 0.667969 0.667969C0.222656 1.11328 0 1.64062 0 2.25V33.75C0 34.3594 0.222656 34.8867 0.667969 35.332C1.11328 35.7773 1.64062 36 2.25 36H33.75C34.3594 36 34.8867 35.7773 35.332 35.332C35.7773 34.8867 36 34.3594 36 33.75V2.25C36 1.85156 35.9004 1.47656 35.7012 1.125C35.502 0.773438 35.2266 0.498047 34.875 0.298828C34.5234 0.0996094 34.1484 0 33.75 0ZM33.75 33.75H2.25V2.25H33.75V33.75ZM7.875 12.375H10.125V14.625C10.125 14.9531 10.2363 15.2227 10.459 15.4336C10.6816 15.6445 10.9453 15.75 11.25 15.75C11.5547 15.75 11.8184 15.6445 12.041 15.4336C12.2637 15.2227 12.375 14.9531 12.375 14.625V12.375H14.625C14.9297 12.375 15.1934 12.2695 15.416 12.0586C15.6387 11.8477 15.75 11.584 15.75 11.2676C15.75 10.9512 15.6387 10.6816 15.416 10.459C15.1934 10.2363 14.9297 10.125 14.625 10.125H12.375V7.875C12.375 7.57031 12.2637 7.30664 12.041 7.08398C11.8184 6.86133 11.5547 6.75 11.25 6.75C10.9453 6.75 10.6816 6.86133 10.459 7.08398C10.2363 7.30664 10.125 7.57031 10.125 7.875V10.125H7.875C7.57031 10.125 7.30664 10.2363 7.08398 10.459C6.86133 10.6816 6.75 10.9512 6.75 11.2676C6.75 11.584 6.86133 11.8477 7.08398 12.0586C7.30664 12.2695 7.57031 12.375 7.875 12.375ZM15.2402 20.7949C15.0176 20.5723 14.748 20.4609 14.4316 20.4609C14.1152 20.4609 13.8516 20.5664 13.6406 20.7773L11.25 23.168L8.85938 20.7773C8.64844 20.5664 8.38477 20.4609 8.06836 20.4609C7.75195 20.4609 7.48242 20.5723 7.25977 20.7949C7.03711 21.0176 6.92578 21.2812 6.92578 21.5859C6.92578 21.8906 7.04297 22.1484 7.27734 22.3594L9.66797 24.75L7.27734 27.1406C7.13672 27.2812 7.03711 27.4512 6.97852 27.6504C6.91992 27.8496 6.91992 28.043 6.97852 28.2305C7.03711 28.418 7.13672 28.582 7.27734 28.7227C7.37109 28.8398 7.48828 28.9277 7.62891 28.9863C7.76953 29.0449 7.91602 29.0742 8.06836 29.0742C8.2207 29.0742 8.36719 29.0449 8.50781 28.9863C8.64844 28.9277 8.76562 28.8398 8.85938 28.7227L11.25 26.3672L13.6406 28.7227C13.7344 28.8398 13.8516 28.9277 13.9922 28.9863C14.1328 29.0449 14.2793 29.0742 14.4316 29.0742C14.584 29.0742 14.7305 29.0449 14.8711 28.9863C15.0117 28.9277 15.1289 28.8398 15.2227 28.7227C15.7617 28.207 15.7617 27.6797 15.2227 27.1406L12.832 24.75L15.2227 22.3594C15.457 22.1484 15.5742 21.8906 15.5742 21.5859C15.5742 21.2812 15.4629 21.0176 15.2402 20.7949ZM21.375 12.375H28.125C28.4297 12.375 28.6934 12.2695 28.916 12.0586C29.1387 11.8477 29.25 11.584 29.25 11.2676C29.25 10.9512 29.1387 10.6816 28.916 10.459C28.6934 10.2363 28.4297 10.125 28.125 10.125H21.375C21.0703 10.125 20.8066 10.2363 20.584 10.459C20.3613 10.6816 20.25 10.9512 20.25 11.2676C20.25 11.584 20.3613 11.8477 20.584 12.0586C20.8066 12.2695 21.0703 12.375 21.375 12.375ZM21.375 23.625H28.125C28.4297 23.625 28.6934 23.5195 28.916 23.3086C29.1387 23.0977 29.25 22.834 29.25 22.5176C29.25 22.2012 29.1387 21.9316 28.916 21.709C28.6934 21.4863 28.4297 21.375 28.125 21.375H21.375C21.0703 21.375 20.8066 21.4863 20.584 21.709C20.3613 21.9316 20.25 22.2012 20.25 22.5176C20.25 22.834 20.3613 23.0977 20.584 23.3086C20.8066 23.5195 21.0703 23.625 21.375 23.625ZM21.375 28.125H28.125C28.4297 28.125 28.6934 28.0195 28.916 27.8086C29.1387 27.5977 29.25 27.334 29.25 27.0176C29.25 26.7012 29.1387 26.4316 28.916 26.209C28.6934 25.9863 28.4297 25.875 28.125 25.875H21.375C21.0703 25.875 20.8066 25.9863 20.584 26.209C20.3613 26.4316 20.25 26.7012 20.25 27.0176C20.25 27.334 20.3613 27.5977 20.584 27.8086C20.8066 28.0195 21.0703 28.125 21.375 28.125Z" fill="#DDD2C2"/>
</svg>
