<svg width="30" height="38" viewBox="0 0 30 38" fill="none" xmlns="http://www.w3.org/2000/svg">
<path d="M7.77583 0.198798L6.05743 0.702459C4.52477 1.15101 3.15593 2.0157 2.11209 3.19469C1.06824 4.37369 0.392847 5.81791 0.165433 7.35731C-0.547367 12.1794 1.04623 17.8176 4.88863 24.2836C8.72143 30.7332 12.9406 34.8884 17.5846 36.7072C19.0768 37.2915 20.7102 37.4472 22.2908 37.1558C23.8714 36.8643 25.3325 36.1381 26.5006 35.0633L27.8038 33.8648C28.6481 33.0878 29.1734 32.0394 29.282 30.9145C29.3906 29.7895 29.0751 28.6645 28.3942 27.7486L25.1398 23.3649C24.6999 22.773 24.0803 22.3298 23.368 22.0973C22.6557 21.8648 21.8864 21.8547 21.1678 22.0684L16.2454 23.5304L16.1182 23.5537C15.5758 23.6307 14.3254 22.4904 12.7654 19.8649C11.1334 17.1181 10.7926 15.5115 11.2438 15.0964L13.7494 12.8276C14.6644 11.9983 15.2893 10.9115 15.5363 9.71973C15.7834 8.52793 15.6403 7.29088 15.127 6.1821L13.543 2.75208C13.0652 1.71889 12.2166 0.88998 11.1558 0.420131C10.095 -0.0497189 8.89439 -0.128393 7.77823 0.198798H7.77583ZM11.3518 3.7081L12.9382 7.13812C13.2467 7.80322 13.333 8.5455 13.1849 9.26067C13.0368 9.97585 12.6618 10.628 12.1126 11.1254L9.60223 13.3966C7.99423 14.8726 8.52704 17.3979 10.6846 21.0308C12.7174 24.4491 14.5702 26.1373 16.5598 25.8435L16.8574 25.7829L21.8686 24.2976C22.1082 24.2261 22.3647 24.2292 22.6023 24.3066C22.8399 24.384 23.0466 24.5317 23.1934 24.7289L26.4478 29.1127C26.7886 29.5707 26.9465 30.1335 26.8922 30.6962C26.8379 31.2589 26.5751 31.7834 26.1526 32.1719L24.8494 33.3705C24.0151 34.1377 22.9715 34.656 21.8428 34.8639C20.7141 35.0718 19.5477 34.9606 18.4822 34.5433C14.407 32.9484 10.555 29.1546 6.96703 23.1177C3.37183 17.0668 1.91743 11.9206 2.54143 7.68842C2.70377 6.58855 3.18626 5.55666 3.93207 4.71432C4.67789 3.87197 5.65594 3.25426 6.75103 2.93396L8.47184 2.4303C9.02973 2.26742 9.62956 2.30725 10.1595 2.54236C10.6894 2.77747 11.1132 3.1918 11.3518 3.7081Z" fill="#DDD2C2"/>
</svg>
