<svg width="36" height="36" fill="none" xmlns="http://www.w3.org/2000/svg"><path d="M33.75 0H2.25C1.64 0 1.113.223.668.668.223 1.113 0 1.641 0 2.25v31.5c0 .61.223 1.137.668 1.582.445.445.973.668 1.582.668h31.5c.61 0 1.137-.223 1.582-.668.445-.445.668-.973.668-1.582V2.25c0-.398-.1-.773-.299-1.125a2.152 2.152 0 00-.826-.826A2.246 2.246 0 0033.75 0zm0 33.75H2.25V2.25h31.5v31.5zM7.875 12.375h2.25v2.25c0 .328.111.598.334.809.223.21.486.316.791.316.305 0 .568-.105.791-.316.223-.211.334-.48.334-.809v-2.25h2.25c.305 0 .568-.105.791-.316.223-.211.334-.475.334-.791a1.1 1.1 0 00-.334-.809 1.08 1.08 0 00-.791-.334h-2.25v-2.25a1.08 1.08 0 00-.334-.791 1.081 1.081 0 00-.791-.334 1.08 1.08 0 00-.791.334 1.081 1.081 0 00-.334.791v2.25h-2.25a1.08 1.08 0 00-.791.334 1.101 1.101 0 00-.334.809c0 .316.111.58.334.79.223.212.486.317.791.317zm7.365 8.42a1.102 1.102 0 00-.808-.334c-.317 0-.58.105-.791.316l-2.391 2.391-2.39-2.39a1.073 1.073 0 00-.792-.317c-.316 0-.586.111-.808.334a1.081 1.081 0 00-.334.79c0 .306.117.563.351.774l2.391 2.391-2.39 2.39c-.141.141-.24.311-.3.51a.979.979 0 000 .58c.06.188.159.352.3.493.093.117.21.205.35.263a1.131 1.131 0 00.88 0 .873.873 0 00.351-.263l2.391-2.356 2.39 2.356a.874.874 0 00.352.263 1.131 1.131 0 00.88 0 .874.874 0 00.35-.263c.54-.516.54-1.043 0-1.582l-2.39-2.391 2.39-2.39c.235-.212.352-.47.352-.774a1.08 1.08 0 00-.334-.791zm6.135-8.42h6.75c.305 0 .568-.105.791-.316.223-.211.334-.475.334-.791a1.1 1.1 0 00-.334-.809 1.08 1.08 0 00-.791-.334h-6.75a1.08 1.08 0 00-.791.334 1.101 1.101 0 00-.334.809c0 .316.111.58.334.79.223.212.486.317.791.317zm0 11.25h6.75c.305 0 .568-.105.791-.316.223-.211.334-.475.334-.791a1.1 1.1 0 00-.334-.809 1.08 1.08 0 00-.791-.334h-6.75a1.08 1.08 0 00-.791.334 1.101 1.101 0 00-.334.809c0 .316.111.58.334.79.223.212.486.317.791.317zm0 4.5h6.75c.305 0 .568-.105.791-.316.223-.211.334-.475.334-.791a1.1 1.1 0 00-.334-.809 1.08 1.08 0 00-.791-.334h-6.75a1.08 1.08 0 00-.791.334 1.101 1.101 0 00-.334.809c0 .316.111.58.334.79.223.212.486.317.791.317z" fill="#DDD2C2"/></svg>