<svg width="30" height="38" fill="none" xmlns="http://www.w3.org/2000/svg"><path d="M7.776.199L6.057.702a8.427 8.427 0 00-3.945 2.493A8.056 8.056 0 00.165 7.357c-.712 4.822.881 10.46 4.724 16.927 3.832 6.45 8.052 10.604 12.696 12.423a8.63 8.63 0 004.706.449 8.49 8.49 0 004.21-2.093l1.303-1.198a4.614 4.614 0 001.478-2.95 4.566 4.566 0 00-.888-3.166l-3.254-4.384a3.594 3.594 0 00-1.772-1.268 3.7 3.7 0 00-2.2-.029l-4.923 1.462-.127.024c-.542.077-1.793-1.064-3.353-3.69-1.632-2.746-1.972-4.353-1.521-4.768l2.505-2.268a5.78 5.78 0 001.787-3.108 5.67 5.67 0 00-.409-3.538l-1.584-3.43A4.733 4.733 0 0011.156.42 4.93 4.93 0 007.778.2h-.002zm3.576 3.51l1.586 3.43a3.4 3.4 0 01.247 2.122 3.466 3.466 0 01-1.072 1.864l-2.51 2.272c-1.609 1.476-1.076 4 1.082 7.634 2.032 3.418 3.885 5.106 5.875 4.813l.297-.061 5.012-1.485a1.222 1.222 0 011.324.431l3.255 4.384a2.283 2.283 0 01-.295 3.059l-1.304 1.199a6.064 6.064 0 01-3.006 1.493 6.163 6.163 0 01-3.36-.32c-4.076-1.596-7.928-5.39-11.516-11.426-3.595-6.051-5.05-11.197-4.426-15.43a5.755 5.755 0 011.391-2.974 6.019 6.019 0 012.819-1.78l1.72-.504a2.465 2.465 0 011.688.112c.53.235.954.65 1.193 1.166z" fill="#DDD2C2"/></svg>