<svg width="36" height="34" viewBox="0 0 36 34" fill="none" xmlns="http://www.w3.org/2000/svg">
<path d="M18 9.20833C16.3683 9.20833 14.7733 9.66531 13.4165 10.5215C12.0598 11.3776 11.0024 12.5945 10.378 14.0183C9.75357 15.442 9.59019 17.0086 9.90852 18.5201C10.2269 20.0315 11.0126 21.4199 12.1664 22.5095C13.3202 23.5992 14.7902 24.3413 16.3905 24.642C17.9908 24.9426 19.6496 24.7883 21.1571 24.1986C22.6646 23.6088 23.9531 22.6101 24.8596 21.3288C25.7661 20.0475 26.25 18.541 26.25 17C26.2475 14.9342 25.3775 12.9538 23.8309 11.493C22.2843 10.0323 20.1873 9.21068 18 9.20833ZM18 23.375C16.665 23.375 15.3599 23.0011 14.2499 22.3006C13.1399 21.6001 12.2747 20.6045 11.7638 19.4396C11.2529 18.2747 11.1192 16.9929 11.3797 15.7563C11.6401 14.5197 12.283 13.3838 13.227 12.4922C14.171 11.6006 15.3738 10.9935 16.6831 10.7475C17.9925 10.5015 19.3497 10.6278 20.5831 11.1103C21.8165 11.5928 22.8707 12.4099 23.6124 13.4582C24.3541 14.5066 24.75 15.7391 24.75 17C24.748 18.6902 24.0362 20.3106 22.7708 21.5057C21.5053 22.7009 19.7896 23.3731 18 23.375ZM26.25 0H9.75C7.16504 0.00276529 4.68679 0.973814 2.85894 2.70011C1.0311 4.42641 0.00292796 6.76698 0 9.20833V24.7917C0.00292796 27.233 1.0311 29.5736 2.85894 31.2999C4.68679 33.0262 7.16504 33.9972 9.75 34H26.25C28.835 33.9972 31.3132 33.0262 33.1411 31.2999C34.9689 29.5736 35.9971 27.233 36 24.7917V9.20833C35.9971 6.76698 34.9689 4.42641 33.1411 2.70011C31.3132 0.973814 28.835 0.00276529 26.25 0ZM34.5 24.7917C34.4975 26.8574 33.6275 28.8379 32.0809 30.2986C30.5343 31.7593 28.4373 32.581 26.25 32.5833H9.75C7.56273 32.581 5.46575 31.7593 3.91911 30.2986C2.37247 28.8379 1.50248 26.8574 1.5 24.7917V9.20833C1.50248 7.14257 2.37247 5.16209 3.91911 3.70138C5.46575 2.24067 7.56273 1.41901 9.75 1.41667H26.25C28.4373 1.41901 30.5343 2.24067 32.0809 3.70138C33.6275 5.16209 34.4975 7.14257 34.5 9.20833V24.7917ZM29.25 7.79167C29.25 8.07186 29.162 8.34576 28.9972 8.57872C28.8324 8.81169 28.5981 8.99327 28.324 9.1005C28.0499 9.20772 27.7483 9.23577 27.4574 9.18111C27.1664 9.12645 26.8991 8.99152 26.6893 8.7934C26.4796 8.59528 26.3367 8.34285 26.2788 8.06804C26.2209 7.79324 26.2506 7.50839 26.3642 7.24953C26.4777 6.99067 26.67 6.76942 26.9166 6.61375C27.1633 6.45809 27.4533 6.375 27.75 6.375C28.1477 6.37547 28.5289 6.52487 28.8101 6.79045C29.0913 7.05602 29.2495 7.41609 29.25 7.79167Z" fill="white"/>
</svg>
